<?plantuml 1.2026.2?><svg xmlns="http://www.w3.org/2000/svg" xmlns:xlink="http://www.w3.org/1999/xlink" contentStyleType="text/css" data-diagram-type="DESCRIPTION" height="417px" preserveAspectRatio="none" style="width:977px;height:417px;background:#EEEBDC;" version="1.1" viewBox="0 0 977 417" width="977px" zoomAndPan="magnify"><defs><filter height="300%" id="f3fwb657ep30x" width="300%" x="-1" y="-1"><feGaussianBlur result="blurOut" stdDeviation="2"/><feColorMatrix in="blurOut" result="blurOut2" type="matrix" values="0 0 0 0 0 0 0 0 0 0 0 0 0 0 0 0 0 0 .4 0"/><feOffset dx="4" dy="4" in="blurOut2" result="blurOut3"/><feBlend in="SourceGraphic" in2="blurOut3" mode="normal"/></filter></defs><g><rect fill="#EEEBDC" height="417" style="stroke:none;stroke-width:1;" width="977" x="0" y="0"/><!--entity gateway--><g class="entity" data-qualified-name="gateway" data-source-line="5" id="ent0002"><rect fill="#FEFECE" filter="url(#f3fwb657ep30x)" height="46.2969" style="stroke:#A80036;stroke-width:1;" width="128.4434" x="312.24" y="7"/><rect fill="#FEFECE" height="10" style="stroke:#A80036;stroke-width:1;" width="15" x="420.6834" y="12"/><rect fill="#FEFECE" height="2" style="stroke:#A80036;stroke-width:1;" width="4" x="418.6834" y="14"/><rect fill="#FEFECE" height="2" style="stroke:#A80036;stroke-width:1;" width="4" x="418.6834" y="18"/><text fill="#000000" font-family="sans-serif" font-size="14" lengthAdjust="spacing" textLength="88.4434" x="327.24" y="39.9951">API Gateway</text></g><!--entity postgrest--><g class="entity" data-qualified-name="postgrest" data-source-line="7" id="ent0003"><rect fill="#FEFECE" filter="url(#f3fwb657ep30x)" height="62.5938" style="stroke:#A80036;stroke-width:1;" width="114.6895" x="410.12" y="130.29"/><rect fill="#FEFECE" height="10" style="stroke:#A80036;stroke-width:1;" width="15" x="504.8095" y="135.29"/><rect fill="#FEFECE" height="2" style="stroke:#A80036;stroke-width:1;" width="4" x="502.8095" y="137.29"/><rect fill="#FEFECE" height="2" style="stroke:#A80036;stroke-width:1;" width="4" x="502.8095" y="141.29"/><text fill="#000000" font-family="sans-serif" font-size="14" lengthAdjust="spacing" textLength="74.6895" x="425.12" y="163.2851">PostgREST</text><text fill="#000000" font-family="sans-serif" font-size="14" lengthAdjust="spacing" textLength="70.2324" x="425.12" y="179.582">(Core API)</text></g><!--entity notif_svc--><g class="entity" data-qualified-name="notif_svc" data-source-line="8" id="ent0004"><rect fill="#FEFECE" filter="url(#f3fwb657ep30x)" height="46.2969" style="stroke:#A80036;stroke-width:1;" width="176.5205" x="198.2" y="138.44"/><rect fill="#FEFECE" height="10" style="stroke:#A80036;stroke-width:1;" width="15" x="354.7205" y="143.44"/><rect fill="#FEFECE" height="2" style="stroke:#A80036;stroke-width:1;" width="4" x="352.7205" y="145.44"/><rect fill="#FEFECE" height="2" style="stroke:#A80036;stroke-width:1;" width="4" x="352.7205" y="149.44"/><text fill="#000000" font-family="sans-serif" font-size="14" lengthAdjust="spacing" textLength="136.5205" x="213.2" y="171.4351">Notification Service</text></g><!--entity rabbit--><g class="entity" data-qualified-name="rabbit" data-source-line="10" id="ent0005"><path d="M458.19,269.89 L536.7476,269.89 C541.7476,269.89 541.7476,283.0384 541.7476,283.0384 C541.7476,283.0384 541.7476,296.1869 536.7476,296.1869 L458.19,296.1869 C453.19,296.1869 453.19,283.0384 453.19,283.0384 C453.19,283.0384 453.19,269.89 458.19,269.89" fill="#FEFECE" filter="url(#f3fwb657ep30x)" style="stroke:#A80036;stroke-width:2;"/><path d="M536.7476,269.89 C531.7476,269.89 531.7476,283.0384 531.7476,283.0384 C531.7476,296.1869 536.7476,296.1869 536.7476,296.1869" fill="none" style="stroke:#A80036;stroke-width:2;"/><text fill="#000000" font-family="sans-serif" font-size="14" lengthAdjust="spacing" textLength="68.5576" x="458.19" y="287.8851">RabbitMQ</text></g><!--entity event_relay--><g class="entity" data-qualified-name="event_relay" data-source-line="11" id="ent0006"><rect fill="#FEFECE" filter="url(#f3fwb657ep30x)" height="62.5938" style="stroke:#A80036;stroke-width:1;" width="189.3174" x="614.81" y="130.29"/><rect fill="#FEFECE" height="10" style="stroke:#A80036;stroke-width:1;" width="15" x="784.1274" y="135.29"/><rect fill="#FEFECE" height="2" style="stroke:#A80036;stroke-width:1;" width="4" x="782.1274" y="137.29"/><rect fill="#FEFECE" height="2" style="stroke:#A80036;stroke-width:1;" width="4" x="782.1274" y="141.29"/><text fill="#000000" font-family="sans-serif" font-size="14" lengthAdjust="spacing" textLength="83.6514" x="629.81" y="163.2851">Event Relay</text><text fill="#000000" font-family="sans-serif" font-size="14" lengthAdjust="spacing" textLength="149.3174" x="629.81" y="179.582">(Listen/Notify Bridge)</text></g><!--entity worker_resume--><g class="entity" data-qualified-name="worker_resume" data-source-line="13" id="ent0007"><rect fill="#FEFECE" filter="url(#f3fwb657ep30x)" height="46.2969" style="stroke:#A80036;stroke-width:1;" width="152.9297" x="7" y="357.18"/><rect fill="#FEFECE" height="10" style="stroke:#A80036;stroke-width:1;" width="15" x="139.9297" y="362.18"/><rect fill="#FEFECE" height="2" style="stroke:#A80036;stroke-width:1;" width="4" x="137.9297" y="364.18"/><rect fill="#FEFECE" height="2" style="stroke:#A80036;stroke-width:1;" width="4" x="137.9297" y="368.18"/><text fill="#000000" font-family="sans-serif" font-size="14" lengthAdjust="spacing" textLength="112.9297" x="22" y="390.1751">Resume Parsing</text></g><!--entity worker_job--><g class="entity" data-qualified-name="worker_job" data-source-line="14" id="ent0008"><rect fill="#FEFECE" filter="url(#f3fwb657ep30x)" height="46.2969" style="stroke:#A80036;stroke-width:1;" width="117.752" x="194.59" y="357.18"/><rect fill="#FEFECE" height="10" style="stroke:#A80036;stroke-width:1;" width="15" x="292.342" y="362.18"/><rect fill="#FEFECE" height="2" style="stroke:#A80036;stroke-width:1;" width="4" x="290.342" y="364.18"/><rect fill="#FEFECE" height="2" style="stroke:#A80036;stroke-width:1;" width="4" x="290.342" y="368.18"/><text fill="#000000" font-family="sans-serif" font-size="14" lengthAdjust="spacing" textLength="77.752" x="209.59" y="390.1751">Job Parsing</text></g><!--entity worker_vector--><g class="entity" data-qualified-name="worker_vector" data-source-line="15" id="ent0009"><rect fill="#FEFECE" filter="url(#f3fwb657ep30x)" height="46.2969" style="stroke:#A80036;stroke-width:1;" width="136.7285" x="347.1" y="357.18"/><rect fill="#FEFECE" height="10" style="stroke:#A80036;stroke-width:1;" width="15" x="463.8285" y="362.18"/><rect fill="#FEFECE" height="2" style="stroke:#A80036;stroke-width:1;" width="4" x="461.8285" y="364.18"/><rect fill="#FEFECE" height="2" style="stroke:#A80036;stroke-width:1;" width="4" x="461.8285" y="368.18"/><text fill="#000000" font-family="sans-serif" font-size="14" lengthAdjust="spacing" textLength="92.2783" x="362.1" y="390.1751">Vectorisation</text></g><!--entity worker_ats--><g class="entity" data-qualified-name="worker_ats" data-source-line="16" id="ent0010"><rect fill="#FEFECE" filter="url(#f3fwb657ep30x)" height="46.2969" style="stroke:#A80036;stroke-width:1;" width="124.0205" x="518.45" y="357.18"/><rect fill="#FEFECE" height="10" style="stroke:#A80036;stroke-width:1;" width="15" x="622.4705" y="362.18"/><rect fill="#FEFECE" height="2" style="stroke:#A80036;stroke-width:1;" width="4" x="620.4705" y="364.18"/><rect fill="#FEFECE" height="2" style="stroke:#A80036;stroke-width:1;" width="4" x="620.4705" y="368.18"/><text fill="#000000" font-family="sans-serif" font-size="14" lengthAdjust="spacing" textLength="84.0205" x="533.45" y="390.1751">ATS Scoring</text></g><!--entity worker_opt--><g class="entity" data-qualified-name="worker_opt" data-source-line="17" id="ent0011"><rect fill="#FEFECE" filter="url(#f3fwb657ep30x)" height="46.2969" style="stroke:#A80036;stroke-width:1;" width="108.4756" x="677.23" y="357.18"/><rect fill="#FEFECE" height="10" style="stroke:#A80036;stroke-width:1;" width="15" x="765.7056" y="362.18"/><rect fill="#FEFECE" height="2" style="stroke:#A80036;stroke-width:1;" width="4" x="763.7056" y="364.18"/><rect fill="#FEFECE" height="2" style="stroke:#A80036;stroke-width:1;" width="4" x="763.7056" y="368.18"/><text fill="#000000" font-family="sans-serif" font-size="14" lengthAdjust="spacing" textLength="68.4756" x="692.23" y="390.1751">Optimiser</text></g><!--entity worker_pdf--><g class="entity" data-qualified-name="worker_pdf" data-source-line="18" id="ent0012"><rect fill="#FEFECE" filter="url(#f3fwb657ep30x)" height="46.2969" style="stroke:#A80036;stroke-width:1;" width="142.8193" x="821.06" y="357.18"/><rect fill="#FEFECE" height="10" style="stroke:#A80036;stroke-width:1;" width="15" x="943.8793" y="362.18"/><rect fill="#FEFECE" height="2" style="stroke:#A80036;stroke-width:1;" width="4" x="941.8793" y="364.18"/><rect fill="#FEFECE" height="2" style="stroke:#A80036;stroke-width:1;" width="4" x="941.8793" y="368.18"/><text fill="#000000" font-family="sans-serif" font-size="14" lengthAdjust="spacing" textLength="102.8193" x="836.06" y="390.1751">PDF Generator</text></g><!--link gateway to postgrest--><g class="link" data-entity-1="ent0002" data-entity-2="ent0003" data-link-type="dependency" data-source-line="20" id="lnk13"><path d="M396.75,53.63 C404.49,62.61 413.2,73.2 420.46,83.29 C431.2,98.21 438.8988,110.462 447.3988,124.982" fill="none" id="gateway-to-postgrest" style="stroke:#A80036;stroke-width:1;"/><polygon fill="#A80036" points="450.43,130.16,449.3352,120.3722,447.904,125.845,442.4312,124.4138,450.43,130.16" style="stroke:#A80036;stroke-width:1;"/><text fill="#000000" font-family="sans-serif" font-size="13" lengthAdjust="spacing" textLength="35.0898" x="432.64" y="96.3569">/api/*</text></g><!--link gateway to notif_svc--><g class="link" data-entity-1="ent0002" data-entity-2="ent0004" data-link-type="dependency" data-source-line="21" id="lnk14"><path d="M336.67,53.68 C325.47,61.73 314.24,71.72 306.46,83.29 C295.48,99.63 291.3408,115.675 289.1108,132.025" fill="none" id="gateway-to-notif_svc" style="stroke:#A80036;stroke-width:1;"/><polygon fill="#A80036" points="288.3,137.97,293.4796,129.5931,288.9757,133.0159,285.553,128.512,288.3,137.97" style="stroke:#A80036;stroke-width:1;"/><text fill="#000000" font-family="sans-serif" font-size="13" lengthAdjust="spacing" textLength="108.729" x="307.46" y="96.3569">SSE notifications</text></g><!--link postgrest to event_relay--><g class="link" data-entity-1="ent0003" data-entity-2="ent0006" data-link-type="dependency" data-source-line="23" id="lnk15"><path d="M525.12,161.59 C551.82,161.59 578.26,161.59 608.43,161.59" fill="none" id="postgrest-to-event_relay" style="stroke:#A80036;stroke-width:1;stroke-dasharray:7,7;"/><polygon fill="#A80036" points="614.43,161.59,605.43,157.59,609.43,161.59,605.43,165.59,614.43,161.59" style="stroke:#A80036;stroke-width:1;"/><text fill="#000000" font-family="sans-serif" font-size="13" lengthAdjust="spacing" textLength="53.5171" x="543.31" y="154.6569">Triggers</text></g><!--link event_relay to rabbit--><g class="link" data-entity-1="ent0006" data-entity-2="ent0005" data-link-type="dependency" data-source-line="24" id="lnk16"><path d="M660.01,193.33 C636.19,207.84 607.09,225.17 580.46,239.89 C561.65,250.28 545.3589,258.5916 528.8889,266.7316" fill="none" id="event_relay-to-rabbit" style="stroke:#A80036;stroke-width:1;"/><polygon fill="#A80036" points="523.51,269.39,533.3507,268.9883,527.9924,267.1746,529.8061,261.8164,523.51,269.39" style="stroke:#A80036;stroke-width:1;"/><text fill="#000000" font-family="sans-serif" font-size="13" lengthAdjust="spacing" textLength="109.2686" x="610.13" y="235.9569">Publishes events</text></g><!--link rabbit to worker_resume--><g class="link" data-entity-1="ent0005" data-entity-2="ent0007" data-link-type="dependency" data-source-line="26" id="lnk17"><path d="M452.92,294.12 C391.08,308.14 275.72,334.38 177.46,357.18 C171.91,358.47 172.0227,358.4453 166.2427,359.7953" fill="none" id="rabbit-to-worker_resume" style="stroke:#A80036;stroke-width:2;"/><polygon fill="#A80036" points="160.4,361.16,170.0739,363.0082,165.269,360.0228,168.2544,355.2179,160.4,361.16" style="stroke:#A80036;stroke-width:2;"/></g><!--link rabbit to worker_job--><g class="link" data-entity-1="ent0005" data-entity-2="ent0008" data-link-type="dependency" data-source-line="27" id="lnk18"><path d="M465.32,296.59 C426.23,311.85 365.1388,335.717 317.0088,354.517" fill="none" id="rabbit-to-worker_job" style="stroke:#A80036;stroke-width:2;"/><polygon fill="#A80036" points="311.42,356.7,321.2585,357.1513,316.0773,354.8808,318.3478,349.6996,311.42,356.7" style="stroke:#A80036;stroke-width:2;"/></g><!--link rabbit to worker_vector--><g class="link" data-entity-1="ent0005" data-entity-2="ent0009" data-link-type="dependency" data-source-line="28" id="lnk19"><path d="M486.74,296.49 C473.55,311.83 454.8037,333.6121 438.5737,352.4721" fill="none" id="rabbit-to-worker_vector" style="stroke:#A80036;stroke-width:2;"/><polygon fill="#A80036" points="434.66,357.02,443.5624,352.8073,437.9214,353.2301,437.4986,347.5891,434.66,357.02" style="stroke:#A80036;stroke-width:2;"/></g><!--link rabbit to worker_ats--><g class="link" data-entity-1="ent0005" data-entity-2="ent0010" data-link-type="dependency" data-source-line="29" id="lnk20"><path d="M508.32,296.49 C521.67,311.83 540.6588,333.6359 557.0888,352.4959" fill="none" id="rabbit-to-worker_ats" style="stroke:#A80036;stroke-width:2;"/><polygon fill="#A80036" points="561.03,357.02,558.1343,347.6065,557.7457,353.2499,552.1022,352.8613,561.03,357.02" style="stroke:#A80036;stroke-width:2;"/></g><!--link rabbit to worker_opt--><g class="link" data-entity-1="ent0005" data-entity-2="ent0011" data-link-type="dependency" data-source-line="30" id="lnk21"><path d="M528.06,296.49 C565.84,311.88 625.2331,336.0672 671.5731,354.9372" fill="none" id="rabbit-to-worker_opt" style="stroke:#A80036;stroke-width:2;"/><polygon fill="#A80036" points="677.13,357.2,670.3031,350.1011,672.4992,355.3143,667.286,357.5104,677.13,357.2" style="stroke:#A80036;stroke-width:2;"/></g><!--link rabbit to worker_pdf--><g class="link" data-entity-1="ent0005" data-entity-2="ent0012" data-link-type="dependency" data-source-line="31" id="lnk22"><path d="M542.09,294.57 C601.7,308.67 710.6,334.53 803.46,357.18 C809.03,358.54 808.9727,358.5308 814.7627,359.9508" fill="none" id="rabbit-to-worker_pdf" style="stroke:#A80036;stroke-width:2;"/><polygon fill="#A80036" points="820.59,361.38,812.8018,355.3514,815.7339,360.189,810.8963,363.1211,820.59,361.38" style="stroke:#A80036;stroke-width:2;"/></g><!--reverse link notif_svc to rabbit--><g class="link" data-entity-1="ent0004" data-entity-2="ent0005" data-link-type="dependency" data-source-line="33" id="lnk24"><path d="M331.3717,188.0152 C375.4217,212.9452 439.74,249.36 475.15,269.4" fill="none" id="notif_svc-backto-rabbit" style="stroke:#A80036;stroke-width:2;"/><polygon fill="#A80036" points="326.15,185.06,332.0125,192.974,330.5015,187.5227,335.9528,186.0117,326.15,185.06" style="stroke:#A80036;stroke-width:2;"/><text fill="#000000" font-family="sans-serif" font-size="13" lengthAdjust="spacing" textLength="153.3022" x="418.07" y="235.9569">Listens for SSE updates</text></g><?plantuml-src RPFDJiCm48JlVefLkG1IspjIAq4RAX0_8Qau8LLEiWschHrsdQA-FNOIm44vnPxvTktC9hnJ6iWm2dQhIf8yG2RpNKccriN2x0t1MHH5Dyk54BavL4QZjZ2wZkzW9Ir-oTC894FPhdjCRDYMIPIkt_JvmX22AxfewCexX6n3_CbOjLMvjCfeI96EAiU6rjxOy34NuhF66c6Ko2nJzl6biQdPX9sYetyak9SdT_I3OejwshG_mGsfeiJs6kYv3NckT_44kJuWn99OwR91lmpja1phdP2zDzaG-66oa7h5t1fItBvS21uRfnVjEeKqTtI_exGSKi-LLGV5I25ZgbuEyV8MLgYHf3iYvAfYAqGtCXYFvty3WIkOoafDBtlsxmISdQPHk-z6nKByLKz8bUzsCW-ZTJLh9vT8B4BPDsvdvuYuplQAtx4RYclQMRDYDl-N_e3ZunwGkt0779_cWEm3792Rl7xqUjOFfFs-6BRkL_7Xr5NXecFn3G00?></g></svg>